# ProBuilder 5.0.6
# https://unity3d.com/unity/features/worldbuilding/probuilder
# 2023/03/18 5:24:01 PM

mtllib ./Floor.mtl
o Floor

g Floor
v 3.023656 -0.25 17
v -3.023656 -0.25 17
v 3.023656 0 17
v -3.023656 0 17
v -2 -0.25 0
v 2 -0.25 0
v -2 0 0
v 2 0 0
v -2 -0.25 1.430769
v -2 0 1.430769
v 2 -0.25 1.430769
v 2 0 1.430769
v -6.00445 -0.25 11.97706
v -5.929729 -0.25 2.206175
v -5.929729 0 2.206175
v -6.00445 0 11.97706
v -2.929816 -0.25 2.229116
v -2.929816 0 2.229116
v 6.00445 -0.25 11.97706
v 6.00445 0 11.97706
v 5.929729 0 2.206175
v 5.929729 -0.25 2.206175
v 2.929816 0 2.229116
v 2.929816 -0.25 2.229116
v 3.004538 0 12
v -3.004538 0 12
v -3.004538 -0.25 12
v 3.004538 -0.25 12
v -6.042686 0 16.97691
v -6.042686 -0.25 16.97691
v 6.042686 -0.25 16.97691
v 6.042686 0 16.97691

vt 3.023656 -0.25
vt -3.023656 -0.25
vt 3.023656 0
vt -3.023656 0
vt 2 -0.25
vt -2 -0.25
vt 2 0
vt -2 0
vt 2.135071 -0.25
vt 0.8349469 -0.25
vt 0.8349469 0
vt 2.135071 0
vt -0.8349469 -0.25
vt -2.135071 -0.25
vt -2.135071 0
vt -0.8349469 0
vt 2 1.430769
vt -2 1.430769
vt 12.02262 -0.25
vt 2.251456 -0.25
vt 2.251456 0
vt 12.02262 0
vt 3.248694 -0.25
vt 3.248694 0
vt -12.02262 -0.25
vt -12.02262 0
vt -2.251456 0
vt -2.251456 -0.25
vt -3.248694 0
vt -3.248694 -0.25
vt -2.929816 2.229116
vt 2.929816 2.229116
vt -3.004538 12
vt 3.004538 12
vt -6.00445 11.97706
vt -5.929729 2.206175
vt 2.912684 -0.25
vt 2.912684 0
vt 5.912684 -0.25
vt 5.912684 0
vt -2.893562 0
vt -2.893562 -0.25
vt -5.91268 0
vt -5.91268 -0.25
vt 5.929729 2.206175
vt 6.00445 11.97706
vt 2.893562 -0.25
vt 2.893562 0
vt -2.912684 0
vt -2.912684 -0.25
vt 6.042686 16.97691
vt 3.023656 17
vt -3.023656 17
vt -6.042686 16.97691
vt -17.02262 0
vt -17.02262 -0.25
vt 17.02262 -0.25
vt 17.02262 0

vn 0 0 1
vn 0 0 -1
vn -1 0 0
vn 1 0 0
vn 0 1 0
vn 0 -1 0
vn -0.9999707 0 -0.007647123
vn -0.6514319 0 -0.7587072
vn 0.9999707 0 -0.007647123
vn 0.6514319 0 -0.7587072
vn 0.007647117 0 -0.9999707
vn -0.007647417 0 0.9999708
vn 0.007647417 0 0.9999708
vn -0.007647117 0 -0.9999707

usemtl Lit
f 3/3/1 4/4/1 2/2/1 1/1/1
f 7/7/2 8/8/2 6/6/2 5/5/2
f 10/12/3 7/11/3 5/10/3 9/9/3
f 6/13/4 8/16/4 12/15/4 11/14/4
f 10/17/5 12/18/5 8/8/5 7/7/5
f 6/7/6 11/17/6 9/18/6 5/8/6
f 16/22/7 15/21/7 14/20/7 13/19/7
f 18/24/8 10/12/8 9/9/8 17/23/8
f 22/28/9 21/27/9 20/26/9 19/25/9
f 11/14/10 12/15/10 23/29/10 24/30/10
f 18/32/5 23/31/5 12/18/5 10/17/5
f 26/34/5 25/33/5 23/31/5 18/32/5
f 11/17/6 24/32/6 17/31/6 9/18/6
f 24/32/6 28/34/6 27/33/6 17/31/6
f 13/35/6 14/36/6 17/31/6 27/33/6
f 14/39/11 15/40/11 18/38/11 17/37/11
f 29/43/12 30/44/12 2/42/12 4/41/12
f 15/45/5 16/46/5 26/34/5 18/32/5
f 31/39/13 32/40/13 3/48/13 1/47/13
f 20/35/5 21/36/5 23/31/5 25/33/5
f 21/43/14 22/44/14 24/50/14 23/49/14
f 22/45/6 19/46/6 28/34/6 24/32/6
f 29/51/5 4/52/5 26/34/5 16/46/5
f 31/51/6 1/52/6 28/34/6 19/46/6
f 3/53/5 32/54/5 20/35/5 25/33/5
f 32/55/9 31/56/9 19/25/9 20/26/9
f 1/52/6 2/53/6 27/33/6 28/34/6
f 4/52/5 3/53/5 25/33/5 26/34/5
f 2/53/6 30/54/6 13/35/6 27/33/6
f 30/57/7 29/58/7 16/22/7 13/19/7

